<svg xmlns="http://www.w3.org/2000/svg" viewBox="0 0 1024 1024" visibility="hidden" style="display: none; width: 0; height: 0;">
  <symbol id="download">
    <path d="M810.667 512v298.667h-597.333v-298.667h-85.333v298.667c0 46.933 38.4 85.333 85.333 85.333h597.333c46.933 0 85.333-38.4 85.333-85.333v-298.667h-85.333zM554.667 540.587l110.507-110.080 60.16 60.16-213.333 213.333-213.333-213.333 60.16-60.16 110.507 110.080v-412.587h85.333v412.587z"/>
  </symbol>
  <symbol id="windows">
    <path d="M426.667 534.187L106.827 533.333 106.827 805.737 426.667 849.904z
            M469.333 534.227L469.333 855.893 916.587 917.333 917.333 534.256z
            M426.667 176.256L106.667 221.76 106.853 490.667 426.667 490.667z
            M469.333 170.293L469.333 490.667 916.587 490.667 916.587 106.667z"/>
  </symbol>
  <symbol id="shield">
    <path d="M511.997 85.334l-341.333 128v259.84c0 215.466 145.493 416.426 341.333 465.495 195.843-49.069 341.334-250.029 341.334-465.495v-259.84l-341.334-128zM466.771 663.040l-151.040-151.039 60.16-60.16 90.454 90.453 180.907-180.906 60.16 60.16-240.641 241.492z"/>
  </symbol>
  <symbol id="star">
    <path d="M512 758.187l263.68 159.147-69.973-299.947 232.96-201.813-306.773-26.027-119.893-282.88-119.893 282.88-306.773 26.027 232.96 201.813-69.973 299.947 263.68-159.147z"/>
  </symbol>
  <symbol id="logo">
    <path d="M488.37,65.87c-19.64-.08-39.29.19-58.94.19H164.19c-6.66,0-13.31-.06-19.97-.01-6.74.05-13.49.16-20.21-.28-3.15-.21-6.18-.55-9.23-1.33-5.32-1.35-10.5-3.05-15.49-5.23-10.01-4.38-19.06-10.42-27.12-17.37-1.53-1.32-3.03-2.67-4.49-4.06-6.59-6.21-14.28-19.82-24.58-21.17-17.08-2.25-22.54,28.36-24.33,38.45-1.18,6.66-1.91,13.42-1.91,20.17,0,27.11-11.05,120.42,90.68,185.28v723.68c0,12.87,11.4,23.3,25.47,23.3h366.63c66.44,0,127.77-3,190.06-25.79,60.43-22.11,116.58-52.02,164.18-92.96,72.35-62.21,118.41-144.61,138.76-233.05,12.27-53.3,16.81-108.12,14.11-162.52-2.36-47.68-12.09-95.1-31.62-139.37-29.69-67.31-75.09-129.35-134.82-177.43-42.77-34.42-90.57-61.68-144.11-79.5-41.23-13.72-84.31-22.8-127.95-26.92-26.52-2.5-53.21-3.99-79.88-4.1ZM737.58,557.44c-3.24,108.61-68.12,198.65-181.68,234.87-57.51,18.34-116.24,13.83-175.63,12.43-13.92-.33-25.1-10.56-25.1-23.29v-486.5c0-13.17,11.8-23.72,26.19-23.3,42.62,1.22,123.32,7.85,134.18,9.2,61.6,7.63,124.21,27.52,164.15,73.41,46.99,54,59.88,136.21,57.88,203.19Z" />
  </symbol>
  <symbol id="mac">
    <path d="M680.32 85.333c-49.195 2.859-105.643 30.293-139.221 65.152-30.336 31.744-54.272 78.933-44.501 124.501 53.461 1.408 107.093-26.709 139.221-62.251 29.995-33.237 52.736-79.616 44.501-127.403zM683.264 274.901c-77.227 0-109.483 47.445-162.944 47.445-54.997 0-105.259-44.416-171.819-44.416-90.539 0-228.181 83.883-228.181 281.472 0 179.755 162.901 379.264 254.848 379.264 55.851 0.555 69.376-35.115 145.152-35.499 75.861-0.555 92.245 35.968 148.181 35.499 62.976-0.469 112.171-69.675 148.053-124.501 25.813-39.253 36.395-59.307 56.363-103.68-148.181-37.547-177.664-276.48 0-325.888-33.536-57.216-131.413-109.653-189.653-109.653z"/>
  </symbol>
</svg>
